<?xml version="1.0" standalone="no"?>
<!DOCTYPE svg PUBLIC "-//W3C//DTD SVG 20010904//EN"
 "http://www.w3.org/TR/2001/REC-SVG-20010904/DTD/svg10.dtd">
<svg version="1.0" xmlns="http://www.w3.org/2000/svg"
 width="24.000000pt" height="24.000000pt" viewBox="0 0 24.000000 24.000000"
 preserveAspectRatio="xMidYMid meet">

<g transform="translate(0.000000,24.000000) scale(0.100000,-0.100000)"
fill="#000000" stroke="none">
<path d="M20 213 c0 -4 10 -17 21 -30 l22 -22 -27 -10 c-30 -12 -36 -48 -8
-58 9 -4 32 -18 50 -31 l32 -24 0 38 0 38 50 -49 c27 -27 53 -46 57 -42 4 4
-35 50 -87 102 -88 88 -110 106 -110 88z"/>
<path d="M180 206 c0 -4 7 -21 16 -38 9 -17 14 -44 12 -60 -5 -34 8 -47 17
-17 10 31 -3 84 -25 104 -11 10 -20 15 -20 11z"/>
<path d="M150 176 c0 -2 8 -21 17 -42 14 -33 18 -36 21 -17 4 24 -13 63 -28
63 -6 0 -10 -2 -10 -4z"/>
</g>
</svg>
