<?xml version="1.0" standalone="no"?>
<!DOCTYPE svg PUBLIC "-//W3C//DTD SVG 20010904//EN"
 "http://www.w3.org/TR/2001/REC-SVG-20010904/DTD/svg10.dtd">
<svg version="1.0" xmlns="http://www.w3.org/2000/svg"
 width="24.000000pt" height="24.000000pt" viewBox="0 0 24.000000 24.000000"
 preserveAspectRatio="xMidYMid meet">

<g transform="translate(0.000000,24.000000) scale(0.100000,-0.100000)"
fill="#000000" stroke="none">
<path d="M185 195 c4 -11 12 -32 18 -47 8 -20 8 -36 0 -55 -28 -72 -28 -70 -2
-45 34 32 34 112 0 144 -22 21 -23 21 -16 3z"/>
<path d="M75 178 c-16 -13 -38 -27 -47 -31 -23 -8 -23 -46 0 -54 9 -4 31 -18
47 -31 l30 -25 3 41 c2 23 2 61 0 84 l-3 41 -30 -25z m15 -60 c0 -39 -1 -40
-18 -25 -10 10 -24 17 -30 17 -7 0 -12 5 -12 10 0 6 6 10 14 10 7 0 19 7 26
15 18 22 20 19 20 -27z"/>
<path d="M155 164 c11 -24 11 -64 0 -88 -6 -14 -5 -18 6 -14 35 12 35 104 0
116 -11 4 -12 0 -6 -14z"/>
<path d="M123 120 c0 -17 5 -29 11 -27 6 2 11 14 11 27 0 13 -5 25 -11 27 -6
2 -11 -10 -11 -27z"/>
</g>
</svg>
